<svg width="33" height="34" viewBox="0 0 33 34" fill="none" xmlns="http://www.w3.org/2000/svg">
<path d="M24.5503 15.4884V15.4642H23.4632C22.3438 16.3002 21.6541 17.5373 21.2351 18.633H22.3529C22.7681 17.5476 23.4495 16.324 24.5503 15.4884Z" fill="white"/>
<path d="M21.0837 30.453L21.742 21.0102C21.7484 20.955 21.7811 20.6947 21.8616 20.3096H20.7438C20.6632 20.6947 20.6304 20.9548 20.6242 21.0102L19.9659 30.453C19.9338 30.8716 19.9506 31.4223 20.2106 31.7033C20.4021 31.9101 20.7544 32.0063 21.3195 32.0063H22.4373C21.8722 32.0063 21.5199 31.9099 21.3284 31.7033C21.0685 31.4223 21.0516 30.8716 21.0837 30.453Z" fill="white"/>
<path d="M6.41771 18.2681H5.29988C4.53651 18.7989 3.88951 19.5034 3.38525 20.3255H4.50309C5.00734 19.5034 5.65434 18.7989 6.41771 18.2681Z" fill="white"/>
<path d="M7.35465 7.83663C7.35465 7.20606 7.86762 6.69309 8.49819 6.69309H10.7181C10.7264 6.69309 10.7344 6.69421 10.7426 6.69432C10.7294 6.07515 10.2226 5.57526 9.60026 5.57526H7.38036C6.74979 5.57526 6.23682 6.08823 6.23682 6.7188V16.5913H7.35465V7.83663Z" fill="white"/>
<path d="M26.2268 15.4642V18.633H29.5373C29.1172 17.5357 28.4277 16.2973 27.3133 15.4642H26.2268Z" fill="#FFA6BB"/>
<path d="M24.5356 3.75688C24.5356 3.22625 24.9672 2.79465 25.4979 2.79465H27.3591V2.63905C27.3591 2.10841 26.9275 1.67682 26.397 1.67682H24.3801C23.8493 1.67682 23.4177 2.10853 23.4177 2.63905V13.7873H24.5356V3.75688Z" fill="white"/>
<path d="M9.32861 20.3255H13.5386C13.0342 19.5034 12.3871 18.7989 11.6239 18.2681H9.32861V20.3255Z" fill="#FFA6BB"/>
<path d="M30.1529 21.0108C30.1465 20.9572 30.113 20.6965 30.031 20.3096H21.8617C21.7811 20.6947 21.7484 20.9548 21.7421 21.0102L21.0838 30.453C21.0517 30.8716 21.0685 31.4223 21.3285 31.7033C21.52 31.9101 21.8723 32.0063 22.4374 32.0063H29.4573C30.0223 32.0063 30.3747 31.9101 30.5662 31.7033C30.8262 31.4225 30.843 30.8716 30.8113 30.459L30.1529 21.0108Z" fill="#BA82AA"/>
<path d="M22.353 18.6329H24.5502V15.4883C23.4495 16.3239 22.7681 17.5475 22.353 18.6329Z" fill="#FFA6BB"/>
<path d="M24.5356 3.75685V13.7873H27.3593V2.79462H25.4981C24.9674 2.79462 24.5356 3.22632 24.5356 3.75685Z" fill="#BA82AA"/>
<path d="M32.4836 30.3363C32.4836 30.3363 31.823 20.8585 31.8221 20.8494C31.8044 20.6783 31.4052 17.0664 29.0288 14.7313C29.0332 14.6966 29.036 14.6615 29.036 14.6257V2.63898C29.036 1.1839 27.8522 0 26.3971 0H24.3802C22.925 0 21.7411 1.1839 21.7411 2.63898V14.6257C21.7411 14.6615 21.7441 14.6965 21.7485 14.7311C19.3718 17.0663 18.9727 20.6785 18.955 20.8494C18.9541 20.8584 18.294 30.3302 18.294 30.3302C18.2106 31.4149 18.4415 32.2601 18.9806 32.8423C19.759 33.6829 20.9338 33.6829 21.3198 33.6829H29.4575C29.8435 33.6829 31.0184 33.6829 31.7967 32.8423C32.3356 32.2602 32.5666 31.415 32.4836 30.3363ZM29.5374 18.6329H26.227V15.4641H27.3136C28.428 16.2971 29.1174 17.5357 29.5374 18.6329ZM23.4178 2.63898C23.4178 2.10834 23.8494 1.67675 24.3801 1.67675H26.3971C26.9276 1.67675 27.3592 2.10846 27.3592 2.63898V2.79458V13.7874H24.5356H23.4178V2.63898ZM23.4633 15.4641H24.5503V15.4884V18.6329H22.3531H21.2353C21.6542 17.5372 22.3439 16.3001 23.4633 15.4641ZM30.5662 31.7031C30.3747 31.9099 30.0224 32.0061 29.4573 32.0061H22.4374H21.3196C20.7545 32.0061 20.4022 31.9098 20.2107 31.7031C19.9507 31.4222 19.9338 30.8714 19.966 30.4528L20.6243 21.01C20.6307 20.9548 20.6634 20.6946 20.7439 20.3095H21.8617H30.0311C30.1129 20.6963 30.1466 20.9571 30.1529 21.0107L30.8114 30.4587C30.8431 30.8715 30.8263 31.4223 30.5662 31.7031Z" fill="#7F3960"/>
<path d="M8.49828 6.69305C7.86771 6.69305 7.35474 7.20603 7.35474 7.8366V16.5912H10.744V6.71876C10.744 6.71049 10.7429 6.70256 10.7428 6.69428C10.7346 6.69417 10.7266 6.69305 10.7183 6.69305H8.49828Z" fill="#BA82AA"/>
<path d="M4.50317 20.3255H7.652V18.2681H6.4178C5.65443 18.7989 5.00743 19.5034 4.50317 20.3255Z" fill="#FFA6BB"/>
<path d="M5.46185 31.3772C5.46185 31.2971 5.47738 31.2181 5.5079 31.1424C5.62918 30.8422 5.56681 30.4988 5.34738 30.2606C4.04287 28.8433 3.29459 26.8289 3.29459 24.7341C3.29459 23.7823 3.44673 22.8585 3.72909 22.0023H2.61126C2.32889 22.8585 2.17676 23.7824 2.17676 24.7341C2.17676 26.8289 2.92492 28.8433 4.22955 30.2606C4.44887 30.4988 4.51135 30.8422 4.39007 31.1424C4.35955 31.2181 4.34401 31.297 4.34401 31.3772C4.34401 31.724 4.62615 32.0061 4.97291 32.0061H6.09074C5.74399 32.0062 5.46185 31.724 5.46185 31.3772Z" fill="white"/>
<path d="M12.5801 31.3772C12.5801 31.2971 12.5645 31.2181 12.5339 31.1422C12.4126 30.842 12.4752 30.4988 12.6945 30.2606C13.999 28.8433 14.7472 26.8289 14.7472 24.7341C14.7472 23.7823 14.5951 22.8585 14.3127 22.0023H9.32874V29.3247C9.32874 29.8816 8.86775 30.1631 8.49037 30.1631C8.02736 30.1631 7.65199 29.7877 7.65199 29.3247V22.0023H3.72918C3.44681 22.8585 3.29468 23.7824 3.29468 24.7341C3.29468 26.8289 4.04284 28.8433 5.34747 30.2606C5.56678 30.4988 5.62927 30.8422 5.50799 31.1424C5.47747 31.2181 5.46193 31.297 5.46193 31.3772C5.46193 31.724 5.74407 32.0061 6.09082 32.0061H11.9511C12.2978 32.0062 12.5801 31.724 12.5801 31.3772Z" fill="#FFA6BB"/>
<path d="M15.7002 20.9195C15.685 20.8694 14.4393 17.9672 12.4206 16.7842V6.71879C12.4206 5.16366 11.1555 3.8985 9.60039 3.8985H7.38037C5.82524 3.8985 4.56008 5.16366 4.56008 6.71879V16.7464C2.24013 18.1206 1.23889 20.8694 1.22369 20.9194C0.754866 22.0974 0.5 23.395 0.5 24.7342C0.5 27.116 1.27477 29.339 2.69095 31.0472C2.67508 31.1561 2.66725 31.2663 2.66725 31.3773C2.66725 32.6487 3.70159 33.6829 4.9729 33.6829H11.951C13.2223 33.6829 14.2567 32.6486 14.2567 31.3773C14.2567 31.2663 14.2488 31.1561 14.2329 31.0472C15.649 29.339 16.4239 27.116 16.4239 24.7342C16.4238 23.395 16.169 22.0975 15.7002 20.9195ZM11.6238 18.2681C12.3871 18.7989 13.0343 19.5034 13.5385 20.3255H9.32865V18.2681H11.6238ZM6.23672 6.71879C6.23672 6.08822 6.74969 5.57525 7.38026 5.57525H9.60017C10.2225 5.57525 10.7293 6.07514 10.7425 6.69431C10.7427 6.70258 10.7437 6.71052 10.7437 6.71879V16.5913H7.35444H6.23661V6.71879H6.23672ZM5.29986 18.2681H6.4177H7.6519V20.3255H4.50307H3.38524C3.88949 19.5034 4.5365 18.7989 5.29986 18.2681ZM4.97279 32.0062C4.62592 32.0062 4.34389 31.724 4.34389 31.3773C4.34389 31.2973 4.35943 31.2182 4.38995 31.1425C4.51123 30.8423 4.44886 30.4989 4.22943 30.2607C2.92492 28.8434 2.17664 26.8291 2.17664 24.7342C2.17664 23.7824 2.32877 22.8586 2.61114 22.0024H3.72897H7.65178V29.3248C7.65178 29.7878 8.02715 30.1632 8.49016 30.1632C8.86754 30.1632 9.32853 29.8817 9.32853 29.3248V22.0023H14.3124C14.5946 22.8585 14.7469 23.7824 14.7469 24.7341C14.7469 26.8289 13.9987 28.8433 12.6942 30.2606C12.4749 30.4988 12.4124 30.842 12.5336 31.1422C12.5642 31.2181 12.5798 31.2971 12.5798 31.3772C12.5798 31.724 12.2976 32.0061 11.9507 32.0061H6.09062H4.97279V32.0062Z" fill="#7F3960"/>
</svg>
